<?xml version="1.0" encoding="utf-8"?>
<!-- Generator: Adobe Illustrator 21.1.0, SVG Export Plug-In . SVG Version: 6.00 Build 0)  -->
<svg version="1.0" id="Capa_1" xmlns="http://www.w3.org/2000/svg" xmlns:xlink="http://www.w3.org/1999/xlink" x="0px" y="0px"
	 width="1096px" height="780px" viewBox="0 0 1096 780" enable-background="new 0 0 1096 780" xml:space="preserve">
<g>
	<defs>
		<rect id="SVGID_1_" width="1096" height="780"/>
	</defs>
	<clipPath id="SVGID_2_">
		<use xlink:href="#SVGID_1_"  overflow="visible"/>
	</clipPath>
	<polygon clip-path="url(#SVGID_2_)" points="527,-229.3 527,-229.3 527,-229.3 	"/>
	<polygon clip-path="url(#SVGID_2_)" points="567.3,1004.7 567.3,1004.7 567.3,1004.7 	"/>
	<path clip-path="url(#SVGID_2_)" fill="#ffffff22" d="M1223.2,364c-0.2-1-0.4-2.2-0.5-3.3c-0.4-5-0.8-10.1-1.2-14.7
		c-0.8-10.4-1.6-21-3-31.4c-3-22.2-6.1-40.4-9.6-57.3c-6.7-32.1-16.4-64-29.5-97.6c-21-53.5-49-104.3-83.3-151
		c-14.3-19.4-30-38.6-46.9-57c-25.8-28.1-54-54.2-83.9-77.6c-55.5-43.4-117.1-77.7-183-102.1c-35.1-13-70-22.7-103.8-28.8
		c-18.5-3.4-37.5-5.7-55.9-8l-6.3-0.8c-6.7-0.8-13.7-1.2-20.4-1.6c-3.3-0.2-6.8-0.4-10.2-0.6c-0.9-0.1-1.7-0.3-2.3-0.5
		c-0.1,0-0.2-0.1-0.4-0.1h-58.5c-1.3,0.6-2.7,0.7-3.6,0.6c-0.1,0-0.2,0-0.3,0c-5.4,0.5-10.7,0.9-16.1,1.4l-0.4,0
		c-10.2,0.9-20.8,1.7-31.2,2.8c-22.7,2.3-46.6,6.6-75.4,13.6c-58.3,14.2-114.6,36.5-167.5,66.1c-45.1,25.3-87,55.5-124.6,89.8
		C35.3-29.9-19.2,46.1-56.6,131.7c-17.9,41-31.5,84.3-40.2,128.4c-4.6,23-7.4,42.2-8.8,60.5c-0.4,5.4-0.8,10.7-1.2,16.1
		c-0.3,4.3-0.6,8.7-1,13c-0.1,0.9-0.3,1.8-0.5,2.5c-0.1,0.2-0.1,0.4-0.2,0.6v56.8c0,0.1,0.1,0.3,0.1,0.4c0.2,0.7,0.5,1.5,0.5,2.4
		c0.3,3.3,0.5,6.8,0.6,9.9c0.4,6.5,0.8,13.1,1.6,19.6l0.8,6.8c1.9,15.7,3.9,32,6.8,47.7c8.8,47.6,23.4,94.3,43.4,138.8
		c35.4,79,85.5,149.4,148.7,209.2c38.3,36.3,80.9,68,126.5,94.1c43.2,24.8,89.2,44.5,136.6,58.7c36.3,10.8,69.6,17.9,101.8,21.5
		c2.6,0.3,5.1,0.6,7.7,0.9l0.1,0c14.9,1.7,30.3,3.5,45.4,3.9c21,0.6,42.5,0,63.2-0.6l4-0.1c25-0.7,50.2-4.5,71.5-8.2
		c38.4-6.5,76.9-17,114.4-31.1c76.4-28.7,146.1-71,207.1-125.7c57.1-51.2,104.1-111.2,139.7-178.3c18.9-35.7,34.4-73.1,45.8-111.1
		c10.8-36.1,18.3-72.6,22.1-108.5c2-18.9,4-41.3,3.7-64.2c-0.3-20.5-1.3-40.3-3-58.6c-1.8-19.2-4.3-37.7-7.5-54.9
		c-8.9-47.7-23.8-94.5-44.2-139C1085.4,47.8,1020.7-33.3,936.9-98C865-153.4,783.8-192.1,695.5-213c-37.9-9-75.7-14.3-112.3-15.7
		c-18.6-0.7-37.7-0.2-56.1,0.4l-0.1,0c-3.5,0.1-6.9,0.2-10.4,0.3c-25.1,0.7-50,4.5-71,8.2c-37.3,6.5-74.6,16.7-110.8,30.5
		c-67.4,25.5-129.9,62.4-185.6,109.7C111.8-48,78.5-12.4,50.2,25.9C13.1,76.2-15.7,130.2-35.4,186.2
		c-19.9,56.4-31.1,116.5-33.3,178.6c-0.8,21.6,0.1,45.2,2.7,72.1c1.8,19.3,4.7,38.8,8.5,57.9c9.5,48.4,25.4,95.8,47.1,140.8
		c24.3,50.3,55.7,97.5,93.3,140.2c22.9,26,48.3,50.3,75.3,72.3c29.5,23.9,61.5,45.3,95,63.4c70.5,38.2,145.5,61.6,222.8,69.7
		c20.8,2.2,38.1,3.3,54.4,3.7c13.3,0.3,26.9-0.4,40-1l0.9,0c4-0.2,8-0.4,12.1-0.5c20.5-0.8,42.6-3.6,69.3-8.7
		c46.6-8.9,91.6-23.1,133.7-42.1c35.5-16,69.3-35.2,100.6-57c28.7-20,55.9-42.7,81-67.5c17.2-17,33.5-35.3,48.5-54.2
		c33.5-42.3,60.8-87.9,81.1-135.5c23-53.7,37.4-108.5,42.7-162.8c1.9-19,3.1-39.1,3.6-59.6c0.4-14.1-0.6-28.2-1.7-41.4
		c-1.7-20.2-3.4-35.6-5.6-50c-3.9-25.9-10.1-52.1-19-80.1c-15.1-47.9-36.6-93.9-63.9-136.9C1022.6,38.2,984.3-6.1,940-44.5
		c-34.6-30-72.1-55.7-111.5-76.6c-49.3-26.1-101.1-45.1-153.9-56.3c-28.6-6.1-57.2-10-85.2-11.7c-30.8-1.9-54.5-1.7-76.7,0.7
		l-8.1,0.9c-15,1.6-30.5,3.2-45.5,5.5c-37.8,5.7-76.2,16.3-117.2,32.3c-41.7,16.3-81.9,37.7-119.4,63.5
		c-25.9,17.9-50.7,38.1-73.6,60C124.5-3,102.1,22.4,82.2,49.3c-31.7,42.8-57.3,89.8-76,139.5C-9.7,231-20.3,275.1-25.4,320
		c-2.1,19-3.3,39.6-3.7,64.8c-0.1,4.6,0.2,9.2,0.4,13.7l0,0.2c0.1,1.6,0.2,3.1,0.2,4.7c0.1,2.3,0.2,4.5,0.3,6.8
		c0.2,5.8,0.4,11.8,1,17.6c2.3,23.3,5.3,43.6,9.1,62.1c9.9,48.3,26.3,95.2,48.7,139.6c22.4,44.2,50.7,85.6,84.2,123.1
		c33.9,38,72.4,71.3,114.5,98.9c43.6,28.7,90.9,51.3,140.5,67.2c49,15.7,100,24.7,151.7,26.6c24.2,0.9,45.2,0.3,64.3-1.7
		c3.9-0.4,7.9-0.8,12.2-1.2c9.4-0.9,19.1-1.8,28.5-3.3c33.1-5.3,65.2-13.2,95.5-23.6c31.6-10.8,62-24.3,90.5-40.1
		c36.2-20,70.3-44,101.4-71.3c45.7-40.1,84.3-86.7,114.9-138.6c22.6-38.3,40.6-79.7,53.4-122.9c11.9-40.1,18.8-80.9,20.7-121.3
		c1.6-33.7,0.4-64.4-3.5-93.8c-3.3-24.8-8.2-49.1-14.4-72.1c-11.5-42.6-28.6-84-50.6-122.9c-28-49.4-63-93.8-104-132.2
		C911-18.2,890-35.3,868.1-50.6c-33.6-23.7-69.8-43.5-107.6-59.1c-35-14.4-71.6-25.1-108.7-32c-26.3-4.8-52.6-7.8-78.3-8.8
		c-27.3-1-55,0.2-85,3.8c-24.9,3-49.7,7.7-73.7,14.2c-29.1,7.8-57.8,18.1-85.3,30.7c-50,22.8-96.1,52.8-137.1,89.1
		C147.9,26.7,110.4,72.4,81,123.3c-24.4,42.2-42.7,87.3-54.5,134.1c-5,19.8-8.7,39.9-11.2,60c-2.6,20.8-3.9,39.3-4,56.4
		c-0.2,28.1,1.4,54.2,5.1,79.7c3.1,21.9,7.6,43.4,13.3,63.8c8.6,30.8,20.1,60.9,34.2,89.5c20.2,40.8,45.5,79,75.3,113.5
		c28.5,33,60.9,62.4,96.2,87.5c42.5,30.2,88.9,54,138.1,70.7c46.6,15.8,95.1,25,144.2,27.2c36.9,1.7,73.1-0.4,107.6-6.3
		c29.6-5,58.3-12.3,85.3-21.7c39.4-13.7,77.1-31.9,111.8-54.1c29.8-19,57.9-41.1,83.5-65.8c20.6-19.8,39.7-41.4,56.8-64.1
		c19-25.4,35.8-52.7,49.9-81.3c15.8-32.1,28.1-65.4,36.5-99c7.7-30.8,12.4-62.1,14-93.1c1.4-26.1,1-47.5-1.2-67.3
		c-1.7-15.2-3.6-32.4-6.4-48.9c-5.3-30.4-14.1-60.8-26.9-92.8c-15.5-38.7-36-75.7-61-110c-20.6-28.3-44.4-54.8-70.7-78.7
		C876.2,4,854.2-13.1,831.1-28.2c-40.6-26.6-84.4-47.1-130.1-61c-29.7-9.1-56.8-14.9-82.9-17.7c-2.4-0.3-4.9-0.5-7.3-0.8
		c-11.7-1.3-23.7-2.7-35.6-3.1c-40.4-1.4-77.4,1.2-113.1,8c-32,6.1-62.7,15-91.5,26.3C318.5-56,270.3-27.1,227.4,9.2
		c-38.8,32.8-72.3,71-99.6,113.6c-29.6,46.1-51.1,96.4-63.9,149.4C56.7,302.5,52.4,334,51.3,366c-1,27.5,0.3,52.3,4,76
		c2.3,15,4.9,31,8.5,46.9c8.4,36.9,21.8,73.5,40,108.6c26.7,51.6,61.7,97.7,104.1,137c20.8,19.3,42.9,36.7,65.7,51.6
		c48.8,32,102.2,55,158.8,68.2c23.5,5.5,45.1,9,65.9,10.5l2.5,0.2c18.3,1.4,37.3,2.9,55.9,1.2c4.5-0.4,9.1-0.6,13.6-0.8
		c6.1-0.3,12.4-0.6,18.5-1.4l3.5-0.4c15.9-2,32.4-4,48.2-7.3c55.1-11.5,107.4-32.5,155.5-62.5C851.8,759,899.3,714.5,937,661.5
		c35.2-49.4,60.2-103.9,74.3-162.1c7-29,11.2-59.4,12.3-90.2c0.9-23.2-0.3-47.8-3.6-72.9c-3.1-24-8-47.6-14.8-70.3
		c-15-50.7-38.7-98.5-70.3-141.9c-26-35.7-56.8-67.7-91.6-95c-43.1-33.8-91.2-59.8-143.1-77.3c-19.7-6.6-39.7-11.9-59.5-15.6
		c-17.1-3.2-35-5.6-53.4-6.9c-23.8-1.8-44.6-1.9-63.7-0.3c-15.9,1.3-32.7,3.4-54.5,7.1c-25.8,4.3-52.3,11.7-81.1,22.8
		C356.8-29,326.4-13.4,298,5.4C259.2,31,224.5,62.2,194.7,98c-27.6,33.3-50.2,69.9-67,108.7c-16.8,38.6-27.9,78.6-33,118.8
		c-2.7,21.5-3.9,39.2-3.7,55.8c0.1,9.6,0.7,19.3,1.3,28.7c0.2,2.7,0.3,5.4,0.5,8.1c1,17.6,3.9,36.6,8.8,58.2
		c8.9,39.1,23.1,76.7,42,111.6c30.7,56.6,72.4,105.6,124,145.5c27.1,21,56.6,38.8,87.7,53.1c35.1,16.1,71.7,27.5,108.9,34
		c19.8,3.5,40.4,5.7,61.3,6.7c21.5,1,44.2,0,69.3-3.1c23.2-2.9,46.6-7.7,69.4-14.3c32.8-9.6,64.2-22.8,93.4-39.2
		c40.5-22.8,77.1-51.4,108.7-85.1c21.7-23.2,40.8-48.3,56.7-74.7c23.7-39.4,40.8-81.7,50.8-125.8c5.2-22.8,8.4-45.2,9.5-66.5
		c1.1-21.3,0.9-40.3-0.6-58c-1.7-19.8-4.3-37.3-7.9-53.7c-8.3-38.4-21.9-75.2-40.3-109.4c-32.7-60.8-78.2-112-135.3-152.2
		c-31.5-22.2-66-40-102.3-53c-23.9-8.5-48.4-14.9-73-19c-24.2-4-46.8-5.9-69-5.9c-0.4,0-0.7,0-1.1,0c-8.1,0-15.5,0.3-22.7,1
		c-2.9,0.3-5.9,0.5-8.8,0.7c-11.9,1-24.2,2-36.1,3.8c-22.6,3.5-45.9,9.4-69.1,17.4c-53.9,18.7-103,47.4-145.8,85.4
		c-36.7,32.6-67.2,70.9-90.7,113.9c-21.4,39.1-36,80.7-43.3,123.5c-2.4,13.8-4.1,29-5.3,46.3c-0.8,11.3-0.8,23.7-0.1,36.7
		c0.9,15.4,1.9,31.8,4.5,47.9c5.7,36.5,16.8,72.1,32.8,105.9c31.4,66.1,77.9,121.2,138.3,163.8c27.6,19.5,57.9,35.6,89.9,47.8
		c26.8,10.2,51.9,17,76.7,20.9c18.7,2.9,35.2,4.6,50.4,5.3c27.8,1.3,55.3-0.3,81.5-4.8c23.4-4,44.2-9.2,63.7-15.8
		c68.7-23.5,128-63,176.2-117.4c25.2-28.4,46.1-60.2,62.2-94.5c15.1-32.2,24.9-63,30-94.3c2.2-13.5,4.8-31.4,5.7-49.3
		c1.6-30.9-0.8-61.8-6.9-91.7c-7.2-35.1-19-68.6-35.2-99.7c-21.4-41.2-49.7-78.1-84.1-109.7c-25.5-23.4-53.8-43.4-84.1-59.3
		c-49.5-26-102.7-40.7-158.4-43.9c-27.7-1.6-55-0.2-81.1,4.1c-34.8,5.8-68.4,16-99.6,30.4C339.7,66.9,292.9,103,255,149.4
		c-33.1,40.4-57,86.1-70.9,135.8c-7.5,26.7-11.8,53.6-12.8,80c-0.9,23.5,0,44.5,2.8,64.1c2.6,18,5.9,33.9,10.1,48.6
		c14.6,51.6,39.9,98.7,75.2,139.8c28.8,33.6,62.7,61.5,100.7,83c55.4,31.3,115.6,47.5,178.9,48.1c16.4,0.2,33.4-1,52.1-3.6
		c21.4-2.9,42.3-7.8,62.3-14.4c67-22.2,123.9-60.9,169.1-115.1c29.1-34.8,50.9-74.4,64.9-117.6c9.4-29,14.9-59.6,16.3-90.8
		c0.4-8.5,0-17.3-0.4-25.7c-0.1-3.4-0.3-6.7-0.4-10c-0.5-16.4-3-33.9-7.6-53.5c-14.1-59.6-42.6-113-84.7-158.4
		c-26.1-28.2-56.5-52-90.3-70.5c-49.8-27.3-103.9-41.8-160.8-43c-17.2-0.4-35.1,0.8-54.7,3.6c-25.9,3.7-51.5,10.4-76.3,20.1
		c-40.4,15.9-77,38.7-108.7,68c-43,39.7-74.1,87.4-92.5,141.6c-9.4,27.8-14.9,57.3-16.5,87.6c-1,20.5,0.2,41.4,3.7,63.9
		c4.5,28.9,13,56.9,25.1,83.3c21,45.6,51.2,85.2,89.8,117.6c32.4,27.2,68.9,47.7,108.6,60.9c34.6,11.6,70.3,17.2,106.2,16.8
		c7.1-0.1,14.4-0.7,21.4-1.2c2.7-0.2,5.4-0.4,8.1-0.6c17.2-1.2,34.8-4.5,53.6-10c75.3-21.8,135.9-64.8,180-127.7
		c40.7-58.1,59.5-122.8,55.8-192.3c-1.1-19.9-3.9-39.1-8.5-57.1c-13.7-53.6-40.8-101.3-80.5-141.8c-21.7-22.1-46.8-41-74.6-56.1
		c-36.8-20-77-32.1-119.4-36.1c-21.6-2-44.3-1.4-67.6,1.7c-23.7,3.3-46.6,9.1-67.8,17.5c-58.3,22.8-105.6,59.8-140.7,109.8
		c-38.7,55.1-56.5,116.3-52.8,181.9c1,18.8,3.9,37.3,8.6,55c11.7,44.7,33.7,85.1,65.1,120.2c26.7,29.8,58.7,53.5,94.9,70.5
		c33.7,15.8,69.4,24.7,106,26.6c19.8,1,39.1,0.1,57.2-2.7c25.9-4,50.6-11.3,73.6-21.6c37.2-16.7,69.7-40.4,96.7-70.5
		c22.3-24.9,39.7-52.6,51.5-82.4c14.2-35.8,20.5-72.8,18.8-110c-1-21.7-4.5-42.7-10.3-62.4c-13.3-44.8-36.7-83.7-69.5-115.6
		c-29.8-29-62.7-50.2-98-63.3c-35.6-13.1-74.5-18.2-115.7-15.1c-20.4,1.5-40.9,5.8-60.9,12.7c-51.4,17.7-93.7,48.1-125.9,90.2
		c-37.3,48.7-54.9,103.7-52.4,163.5c1,22.9,5.1,45.1,12.2,66.1c18.8,54.9,53.1,99.1,101.9,131.4c39.1,25.9,83.5,39.7,131.7,40.9
		c8.2,0.2,16.6-0.5,24.7-1.2c1.7-0.1,3.5-0.3,5.2-0.4c17.5-1.4,35.2-5.3,54.1-12c42.3-14.9,78.4-39.7,107.2-73.7
		c33-39,51.7-84.1,55.4-134c1.9-25.5-0.5-50.2-7.1-73.5c-16.7-59.3-51.7-105.7-104-138c-40.3-24.9-84.1-36.1-130.1-33.2
		c-9.9,0.6-20.5,1.4-30.7,3.4c-48.7,9.7-90.2,32.9-123.5,68.9c-32.8,35.6-51.8,77.2-56.4,123.8c-2.2,22-1.1,43.2,3.3,63
		c11.3,50.9,38.2,92.9,80.1,124.8c33.2,25.4,71.8,39.7,114.7,42.6c13.8,0.9,28.4,0.1,44.6-2.7c42-7,78.7-25.5,109.1-55
		c35.1-34,55.2-75.3,59.8-122.7c2.1-21.3,0.4-42.6-5-63.2c-10.7-40.9-33-75.3-66.5-102.2c-31.3-25.3-67.9-39.3-108.6-41.8
		c-16.3-1-33.1,0.6-51.5,4.8c-36.1,8.3-70,28.3-95.4,56.5c-25.7,28.5-41.7,64.2-44.9,100.5c-2.3,26.1,1,51.2,9.8,74.7
		c13.4,35.5,36.4,64,68.2,84.6c37.5,24.3,78.2,32.6,121.2,24.7c45.3-8.3,81.5-32.2,107.7-71c21-31.1,29.4-65.8,24.9-102.9
		c-3.3-27.5-14-52.5-31.6-74.5c-26.2-32.7-60-51.8-100.4-57c-22.6-2.9-44.8-0.4-66,7.3c-29.8,10.8-53.6,29.1-70.7,54.4
		c-22.8,33.6-29.6,69-20.3,105.1c13.4,52.2,46.9,85.4,99.6,98.8c22.9,5.8,46.3,4.3,69.7-4.3c30.5-11.3,53.3-31.1,67.8-59
		c13.9-26.8,16.8-54.7,8.6-83c-8-27.4-24.4-49.1-48.7-64.4c-22.1-13.9-46.2-19.2-71.6-15.7c-24.5,3.4-45.5,14.3-62.5,32.4
		c-18.2,19.5-27.2,42.4-26.6,68.2c0.4,21.5,8,41,22.5,57.9c26.5,30.9,69.3,40.7,104.2,23.7c28.6-13.9,44.4-36.3,46.9-66.4
		c1.7-20.9-4.9-39.5-19.7-55.2c-25.1-26.6-63.8-29.9-91.8-7.8c-23.4,18.4-29.3,50.5-13.7,74.6c9.9,15.3,24.2,23.5,41.3,23.8
		c18.6,0.3,32.8-8.3,41.2-24.8c4.8-9.5,5-20.5,0.6-30.2c-4.4-9.4-12.7-16.2-22.7-18.6c-12-2.9-24.7,3.6-29.1,14.7
		c-3.1,8.1,1,22,12.3,18.1c1.7-0.6,2.9-2.4,4.3-3.5c5.3-4.1,4.6,5.1,2.7,7c-4.2,4.5-11.2,5.5-16.2,2.9c-7.6-3.9-11.2-14.7-9.7-22
		c1.5-7.3,6-13.7,12.9-18.1c6.4-4.1,14-5.8,20.8-4.7c11.4,1.9,21,8.1,27,17.7c6,9.6,7.6,21.5,4.3,32.8c-5.9,20.2-28,38.8-57.2,33.7
		c-17.1-3-31.8-13.7-40.4-29.3c-8.7-15.8-9.7-34.5-2.8-51.2c13.2-32,47.6-49.2,81.9-40.9c23.9,5.8,43.3,22,53.2,44.6
		c10.1,22.9,8.9,48.5-3.2,70.4c-18.9,34.1-59,52.5-97.5,44.8c-23.6-4.7-45.5-19.1-60.1-39.3c-15.3-21.2-21.4-46.9-17.3-72.3
		c3.5-21.6,13.4-40.6,29.4-56.5c18.9-18.7,41.7-29.6,68-32.3c14.2-1.5,28.6-0.1,42.7,4.1c28.6,8.5,51.3,25.9,67.3,51.8
		c15.4,24.7,20.7,51.7,15.9,80.3c-4.1,24.3-14.8,45.6-31.8,63.3c-32.6,34-72.6,47.5-118.8,40c-32.8-5.3-60.3-21.6-82-48.3
		c-30.3-37.4-39.1-79.5-26.2-125.1c8.4-29.6,25.8-54.7,51.9-74.5c36.8-28,78.5-37.3,124.2-27.8c37.6,7.9,68.7,27.9,92.4,59.6
		c28.8,38.4,38.1,81.7,27.7,128.8c-5.7,25.6-17.4,48.6-34.9,68.2c-45.1,50.6-100.9,69.7-165.8,56.6c-36.5-7.4-70.5-26.9-95.7-55.1
		c-25.7-28.7-41.2-64.2-44.7-102.5c-1.8-19.3-0.2-38.6,4.6-57.3c9.6-36.8,28.8-68,57.1-92.7c45.6-39.9,99.1-55.3,158.9-46
		c36.1,5.7,68.6,21.2,96.5,46.1c42.6,38,65.4,85.1,67.8,140c1,23.2-2.1,45.8-9.2,67.2c-14,42-39.4,76.6-75.3,102.6
		C616.3,591.6,561.9,604.2,503,594c-40.1-7-75.9-24.7-106.5-52.6c-45.2-41.3-69.4-92.3-72.2-151.5c-0.9-19,0.8-37.7,5.1-55.6
		c12.4-52.1,40.6-95.2,83.8-128c41.5-31.6,88.5-47.6,139.5-47.6c5.6,0,11.3,0.2,16.9,0.6c17,1.1,33.6,4.1,49.2,8.8
		c43,13,79.9,36.3,109.5,69.3c36.7,40.9,57.2,88.9,60.9,142.6c1.6,23-0.5,46.3-6.2,69c-12.8,51-40,94.2-81,128.5
		c-44.5,37.2-96.1,57-153.3,59c-18.8,0.6-36.8-0.6-53.5-3.8c-27.1-5.2-52.7-14.3-76-27.2C374.7,580.8,339.8,546,315.4,502
		c-16-29-26-60.1-29.6-92.6c-2-18.2-2.2-34.9-0.6-51c1.8-18.5,5.6-36.7,11.3-53.9c13.1-40.1,35.3-75.9,66.1-106.3
		c29.3-29,64-50.6,103.3-64.3c23-8,45.7-12.6,67.3-13.8c17.2-0.9,34.2,0,47.2,0.8c24.8,1.7,49.6,7.8,75.9,18.7
		c53.8,22.3,97.3,58.4,129.3,107.2c24,36.5,38.4,77.2,42.9,120.8c2.3,21.9,1.6,44.6-1.9,67.2c-4.2,27.4-12.4,53.4-24.3,77.5
		c-27.8,56.3-70.4,100.2-126.7,130.2c-36.1,19.3-75.5,30.4-117,33.1c-29.5,1.9-58.5-0.7-86.2-7.6c-58.7-14.7-109.2-44.7-150.2-89.2
		c-24.1-26.2-43.3-56.3-57-89.7c-10.5-25.6-17.2-52.6-19.8-80.3c-1.9-19.9-1.7-40.2,0.7-60.4c2.2-18.9,5.9-36.2,11.2-52.8
		c16.9-53.1,47.1-99.2,89.6-137c29.5-26.2,63.5-46.4,101-60.2c20.2-7.4,42.3-12.8,65.6-16.1c13.9-1.9,29-2.6,47.8-2.3
		c15.2,0.3,30.9,1.9,46.5,4.7c30,5.5,58.9,15.1,85.8,28.8c48.4,24.5,88.6,59.4,119.6,103.7c32.9,47.1,51.6,99.5,55.6,156
		c2.2,30.9-0.3,61.4-7.4,90.9c-12.6,52.3-37.4,99.4-73.6,139.9c-34.3,38.4-76,67.7-124,87.3c-38.4,15.7-79.6,23.8-122.3,24.1
		c-4.2,0-8.3-0.2-12.4-0.4l-0.4,0c-2.5-0.1-5.1-0.3-7.6-0.4c-17.4-0.6-35.8-3.2-56.1-8c-53.3-12.6-101.6-37.4-143.6-73.5
		c-40-34.5-70.8-76.5-91.4-124.9c-14.6-34.2-23.1-70-25.2-106.3c-1.5-24.9-0.2-49.2,3.6-72.3c4.8-28.6,13-56.1,24.5-81.7
		c23.7-53,59.8-98.3,107.2-134.8c30.4-23.4,64.5-41.6,101.5-54.2c35.8-12.2,72.7-18.3,109.8-18.4c13.2,0,26.6,1.2,39.5,2.4
		c2,0.2,4,0.4,6,0.5c17.3,1.5,35.4,5.3,57,11.8c41,12.4,79.2,31.9,113.5,57.9c39.5,30,71.8,66.6,96,108.9
		c29,50.9,44.5,105.2,45.8,161.4c0.6,23.8-0.8,45.3-4.2,66c-5.4,33.1-15.5,65.2-30.1,95.2c-21.4,44.3-51.2,83.4-88.5,116.3
		c-30.8,27.2-65.7,49.1-103.6,65.1c-37.7,15.9-77.2,25.3-117.3,27.8c-23,1.5-45.4,0.9-66.6-1.6c-22.5-2.7-42.9-6.8-62.1-12.5
		c-56.9-16.9-107.8-45.9-151.4-86.3c-40.2-37.2-71.4-81.6-92.6-131.8c-15.7-37-24.9-75.8-27.5-115.3c-1.5-22.6-1-44.8,1.6-66.1
		c2.7-22.7,7.2-44.6,13.5-65.1c16-52.1,42.8-99.6,79.6-141.1c36.5-41.2,80.6-73.9,131-97.3c43.5-20.2,89.6-31.9,136.9-34.9
		c29.1-1.8,57.5-0.6,84.3,3.7c25.8,4.1,49.2,10,71.5,18c57,20.4,107.7,52.7,150.7,95.8c32.1,32.3,58.2,69.2,77.5,109.7
		c16.4,34.2,27.4,69.6,32.8,105.2c4.5,29.9,5.9,55,4.3,79c-1.2,17.2-2.9,32.5-5.3,46.8c-5.9,35-17.1,69.4-33.2,102.4
		c-21.5,44.1-50.8,83.8-87.1,118.1c-26,24.6-54.7,45.6-85.4,62.4c-53,29.1-110.1,45.9-169.6,50c-27.6,1.9-55.4,1-82.8-2.6
		C467,788,448,784,429.1,778.6c-49.8-14.3-96.2-37.4-137.7-68.6c-31.3-23.5-59.3-51.3-83.2-82.6c-22.9-30.1-41.6-63-55.5-97.9
		c-11.3-28.3-19.2-57.5-23.6-86.8c-3.5-22.8-5.1-46.6-4.9-70.5c0-2.1,0.2-4.2,0.4-6.2c0.2-1.6,0.3-3.2,0.4-4.8
		c0.7-20.1,3.5-41.1,8.5-64.4c9.4-44.1,26.4-86.6,50.6-126.5C210,127.6,243.1,89.8,282.6,58C326.1,23,375-3,428-19.4
		c29-9,59.2-14.8,89.8-17.4c23.7-2,44.5-2.1,63.6-0.2l4.1,0.4c14.5,1.4,29.5,2.8,44.1,5.4c31.8,5.5,63.7,15.2,95,28.8
		c42.1,18.3,81.2,43.1,116.1,73.6c31,27.1,58,58.5,80.4,93.1c20.4,31.6,36.5,65.4,47.9,100.6c7,21.6,12.2,43.7,15.6,65.7
		c2.8,18.1,4.3,35,4.7,51.7c0.2,8.8-0.1,17.7-0.4,26.4c-0.1,3.6-0.3,7.2-0.4,10.8c-0.4,16.3-2.6,33.8-6.8,55.2
		c-6.1,31.2-15.9,61.9-28.9,91.2c-19.4,43.7-46,84.1-78.9,120c-26.2,28.6-56.1,53.9-88.8,75c-29.1,18.8-60,34.1-91.8,45.7
		c-28.6,10.4-58.1,17.8-87.7,22.2c-23.7,3.5-44.5,5-63.8,4.7c-17.5-0.2-35.1-1.7-50.6-2.9c-19.4-1.6-39.7-5.3-63.9-11.6
		c-64.4-16.9-123.4-47.1-175.5-89.8c-34.8-28.5-65.2-61.8-90.3-98.9c-18.9-27.9-34.6-57.7-46.7-88.4c-12.1-30.8-20.6-62.5-25.4-94.4
		c-3.7-24.6-5.4-48.9-5-72.1c0.1-7.6,0.4-13.7,0.9-19.4c0.2-2.3,0.4-4.6,0.6-6.9l0-0.1c1-11.2,2-22.7,3.6-34.1
		c4.2-29.9,12.1-59.6,24.1-91c12.5-32.7,28.9-64,48.7-93.2c23.5-34.5,51.4-65.8,83-92.9C282.5,5.8,323.6-20,367.6-39
		c38.2-16.5,78.3-27.9,119-33.7c20.4-2.9,41.2-4.6,61.6-4.8c29.5-0.4,60.4,2.3,91.7,8.2c31.6,5.9,62.9,15.2,93.2,27.8
		c40.9,17,79.3,39.5,114,67c28.2,22.3,53.9,47.6,76.5,75.4c27.1,33.3,49.6,70,66.9,109.3c13.1,29.7,23.1,61.2,29.8,93.6
		c4.8,23.2,7.6,45.9,8.5,67.5c0.5,12.9,0.1,26-0.3,38.7l0,0.3c-0.1,4.4-0.3,8.9-0.4,13.3c-0.4,19.7-3.7,39.2-6.8,55.7
		c-7.5,40.1-20.6,79.3-38.7,116.5c-17.9,36.9-40.7,71.6-67.7,103.2c-18.6,21.8-39.2,42.1-61.2,60.3c-27,22.3-56.5,41.9-87.7,58.2
		c-26.2,13.6-53.4,24.9-80.8,33.3c-26.5,8.2-50.2,13.6-72.4,16.5c-2.7,0.4-5.4,0.7-8.2,1.1c-11.3,1.5-22.9,3.1-34.5,3.7
		c-22.2,1.1-43.9,0.9-64.4-0.5c-18.9-1.3-37.4-3.7-55-7c-35-6.6-69.5-17-102.5-31.1c-49.1-21-94.7-49.8-135.6-85.6
		c-22.7-19.8-43.8-42.1-62.7-66.2c-29-36.9-52.5-76.9-69.7-119c-9.5-23.2-15.9-42.5-20.2-60.6c-4.8-20.4-7.9-36-10.2-50.7
		c-2.8-17.7-4.4-33.2-4.9-47.4c-0.5-13.8-0.1-27.8,0.3-41.4c0.1-4,0.3-8,0.4-12c0.5-18.3,2.9-37.3,7.8-61.9
		c7.3-36.1,18.7-71.4,33.9-104.9c21.8-48.2,51.1-92.6,87.1-132.1c24.3-26.6,51.4-50.8,80.6-71.7c52.6-37.7,110.8-65,173.1-81.1
		c22.1-5.7,45.5-10,69.4-12.7c13.8-1.6,28.4-2.4,43.5-2.5c15.8-0.1,36.5,0,57,1.5c18.5,1.4,38.3,4.4,60.5,9.1
		c46.8,9.9,92,26.4,134.4,49C846.8-28.3,894.7,9,935.5,53.9c22.6,24.8,42.7,51.7,60,80c20.5,33.5,37.2,69.8,49.7,107.7
		c7.4,22.6,13.2,45.8,17.1,69c4.8,28.1,7,53.2,6.8,76.7c-0.1,17.2-0.3,34-1.8,50.8c-1.8,20.9-5.2,42.6-10.2,64.6
		c-8.8,38.8-22.2,76.6-39.8,112.3c-19.9,40.3-45.3,78.4-75.5,113.1c-30.1,34.6-64.8,65.4-103.3,91.7c-34,23.2-71.1,42.6-110.3,57.7
		c-52.1,20-107.2,31.5-163.7,34.3c-28,1.3-55.6,0.4-82.2-2.7c-22.9-2.7-44-6.4-64.4-11.2c-31.3-7.4-62.2-17.9-92.1-31.2
		c-44-19.6-85.1-44.7-122.2-74.7c-28.7-23.3-55.2-49.6-78.8-78.2c-25.4-30.8-47.2-64.3-64.9-99.4c-20.7-41.1-36-84.7-45.3-129.6
		c-5.3-25.4-8.4-49-9.7-72.1c-1.1-20.2-1.8-44.1,0.7-68.2c0.3-2.8,0.6-5.5,0.9-8.3c1.6-15.2,3.2-30.8,5.9-46.1
		c6.3-36.5,17.4-73.6,33-110.1c21.5-50.4,50.3-97.2,85.9-139c22.3-26.2,47-50.5,73.6-72.3C238-58.3,273.8-81.3,311.7-100
		c41.7-20.5,85.8-35.6,131.3-45.1c29.3-6.1,58-9.7,85.1-10.7c17.4-0.7,35.9-0.4,58.1,0.8c17.8,1,35.5,3.2,50.4,5.2
		c32.5,4.4,65.5,12.7,100.8,25.4C790.3-105.5,840-78.7,885-45c43.2,32.3,81.6,70.6,114.1,113.6c30.8,40.8,55.6,85.3,73.9,132.3
		c17.9,46.1,29.2,93.1,33.6,139.4c1.6,16.4,3.3,38,2.9,59.7c-0.2,8.3-0.7,16.6-1.2,24.7l0,0.3c-0.2,3.6-0.5,7.3-0.7,10.9
		c-0.9,17.5-3.4,36.2-7.7,58.7c-7.6,39.3-19.8,78.4-36.5,116.1c-13.9,31.5-30.8,61.8-50.2,90c-23.3,33.9-50.2,65.3-80,93.4
		c-17.8,16.8-36.7,32.5-55.9,46.6c-35.1,25.7-72.8,47.3-112.1,64.2c-49.4,21.2-99.9,35.2-150.2,41.6c-27.8,3.5-50.7,5.1-72.1,5
		c-10.4-0.1-21-0.5-31.2-0.9l-6.2-0.2c-5.6-0.2-11.4-0.4-17.1-1.2l-0.8-0.1c-16-2.1-32.5-4.3-48.8-7c-31.1-5.3-62.4-13.8-95.7-26.2
		c-49.7-18.4-96.7-43.7-139.9-75c-34.5-25.1-65.9-53.5-93.5-84.6c-16.7-18.8-32.2-38.6-46.2-59C38.1,660.6,17.2,620.7,1.1,579
		C-20.1,523.6-32.3,465.5-35,406.1c-1.1-23.8-0.5-48.1,1.7-74.3c1.8-21.2,5.2-43.4,10.1-66.2c12-55.1,32-107.9,59.6-157
		c32.2-57.3,73.5-108.7,123-152.9c21.4-19.1,44.4-36.8,68.4-52.8c57.3-37.9,119.7-65.4,185.4-81.7c27.3-6.8,55-11.5,82.4-14
		c24.2-2.3,44.2-3.2,62.8-2.9c4.7,0.1,9.4,0.3,14,0.5l0.3,0c3.1,0.1,6.1,0.3,9.2,0.4c18.3,0.6,37.4,2.5,62,6.2
		c30.6,4.7,61.2,12,91,21.7c82.6,27.1,157.4,71,222.3,130.6c42.2,38.8,78.8,83.6,108.8,133.1c23.6,39,42.6,80.8,56.4,124.1
		c11,34.4,18.1,66.3,21.8,97.4c2.1,17.9,4.1,37.1,4.9,56.8c0.9,20.9,0.3,43-1.6,65.5c-2,23-4.9,44.1-9,64.7
		c-7.7,39.1-19.7,77.7-35.6,114.7c-26,60.7-62.1,116.8-107.1,166.8c-28.4,31.5-60.6,60.5-95.6,86.2c-39.6,29-82.7,53.2-128,72
		c-47.3,19.6-95,32.7-141.8,39.2c-17.4,2.4-36.2,4.8-55.1,5.9c-13.7,0.8-27.6,0.7-41,0.6c-4,0-7.9-0.1-11.8-0.1
		c-24.6-0.1-50.6-2.5-81.8-7.7c-33.3-5.5-66.5-14-98.7-25.2c-76.8-26.7-146.9-67.7-208.5-121.8c-35.2-30.9-66.8-65.7-94-103.4
		C2.1,680.4-26.8,624-46.2,564.6c-12.2-37.4-20.1-72.2-24.1-106.5c-2-17.1-4.1-37-4.9-56.8c-1.1-29.4,0.1-59.1,3.7-88.4
		c3.2-26.2,7.6-50.4,13.5-74c11.9-47.8,29.9-94.5,53.6-138.7C22.5,49.9,56.7,2.9,97.3-39.5C115-58,134.9-76.2,156.5-93.7
		c37.3-30.2,78.1-56.2,121.2-77.4c70.2-34.4,145.7-55.3,224.5-62.1c15.1-1.3,30.4-1.7,45.2-2l3.9-0.1c5-0.1,10.1,0.1,15,0.4l0.1,1
		l0-1c3.3,0.2,6.7,0.3,10,0.4c19.4,0.3,40.1,2.1,65.2,5.6c25.7,3.6,51.7,9,77.2,16.1c46.9,13,92.4,31.3,135.1,54.5
		c47.1,25.5,91,57,130.5,93.3c40.7,37.5,76.4,79.9,106,126c32.1,50,56.9,103.8,73.5,159.7c9.9,33.3,16.4,63.7,19.8,93
		c2,17,4.2,36.2,4.9,55.2c0.9,24.3,1.3,50.3-1.8,76.5c-0.5,4.2-1,8.5-1.4,12.8c-1.5,13.4-3,27.1-5.3,40.6
		c-6,35.1-15.4,70.4-28.1,104.9c-28.8,78.3-72.4,149.8-129.5,212.4c-39.3,43.1-84.3,80.9-133.7,112.2
		c-97.4,61.7-204.8,95.8-319.4,101.4c-31.9,1.6-60.8,0.9-88.5-2.1c-20.9-2.2-41.3-5.5-56.8-8.1c-33.2-5.5-67-14.6-103.4-27.8
		c-66.9-24.2-129.4-59-185.8-103.5c-34.1-26.9-65.6-57.1-93.7-89.8c-30.8-35.9-57.7-74.9-79.8-115.8c-21.6-40-39-82-51.6-125
		c-9.8-33.6-16.3-64.5-19.8-94.6l-0.1-0.6c-2.1-17.7-4.2-36-4.8-54.1c-0.9-27.4-1.3-63.5,3.9-99.9c0.4-2.7,0.8-5.4,1.1-8.1l0.1-0.6
		c1.9-13.8,3.9-28,6.7-41.9c5.7-29.3,14.1-59.3,24.8-89.1C-49.8,89.7-6.5,17.2,50.2-46.7c39.4-44.3,84.4-83.4,133.9-116
		c44.2-29.1,91.2-52.9,139.8-70.8c36.4-13.4,74-23.6,111.8-30.4c23.2-4.2,46.9-7.2,70.5-8.9c10.5-0.8,21.2-0.9,31.6-1.1l0.5,0
		c4.6-0.1,9.3-0.2,13.9-0.3c1.3,0,2.6-0.1,4-0.2V-288h-32.6c-0.1,0-0.3,0.1-0.4,0.1l-0.2,0c-0.7,0.2-1.6,0.4-2.5,0.5
		c-5.6,0.5-11.3,0.9-16.9,1.4l-0.2,0c-10.7,0.9-21.8,1.8-32.6,2.8c-23.6,2.3-48.2,6.7-77.5,13.9c-51.7,12.6-101.8,31.2-149,55.3
		c-47.7,24.4-92.6,54.2-133.4,88.7c-22.6,19.1-44,39.6-63.4,60.8C7.9-21.3-25.7,26.2-52.7,76.8C-77.8,124.1-97,174-109.9,225
		c-7,27.8-11.6,52.6-14.2,75.8c-1.2,10.8-2.1,21.9-3,32.6c-0.4,5.4-0.9,10.8-1.4,16.2c-0.1,0.9-0.3,1.6-0.5,2.3l-0.1,0.4v57.9
		c0.1,0.4,0.1,0.8,0.2,1.2c0.2,1.1,0.4,2.2,0.5,3.3c0.4,4.9,0.8,9.9,1.2,14.7c0.8,10.4,1.6,21,3,31.4c3,22.2,6.1,40.4,9.6,57.3
		c6.7,32.1,16.4,64,29.5,97.6c21,53.5,49,104.3,83.3,151c14.3,19.5,30,38.6,46.9,57c25.8,28.1,54,54.2,83.9,77.6
		c55.5,43.4,117.1,77.7,183,102.1c35.1,13,70,22.7,103.8,28.8c18.5,3.4,37.5,5.7,55.9,8l6.3,0.8c6.7,0.8,13.7,1.2,20.4,1.6
		c3.3,0.2,6.7,0.4,10.2,0.6c0.9,0.1,1.7,0.3,2.3,0.5l0.4,0.1h58.5c1.3-0.6,2.7-0.7,3.6-0.6c0.1,0,0.2,0,0.3,0
		c5.5-0.5,11-0.9,16.5-1.4c10.2-0.9,20.8-1.7,31.2-2.8c22.7-2.3,46.6-6.6,75.4-13.6c58.2-14.2,114.6-36.5,167.5-66.1
		c45.1-25.3,87-55.5,124.6-89.8c70.3-64.2,124.9-140.2,162.3-225.8c17.9-41,31.5-84.3,40.2-128.4c4.6-23,7.4-42.2,8.8-60.5
		c0.4-5.4,0.8-10.7,1.2-16.1c0.3-4.3,0.6-8.7,1-13c0.1-0.9,0.3-1.8,0.5-2.5l0-0.1c0-0.2,0.1-0.3,0.1-0.5v-56.8
		c0-0.1-0.1-0.3-0.1-0.4c-0.2-0.7-0.5-1.5-0.5-2.4c-0.3-3.4-0.5-6.8-0.6-9.9c-0.4-6.4-0.8-13.1-1.6-19.6l-0.8-6.8
		c-1.9-15.7-3.9-32-6.8-47.7c-8.8-47.6-23.4-94.3-43.4-138.8c-35.4-79-85.5-149.4-148.7-209.2c-38.3-36.3-80.9-68-126.5-94.1
		c-43.2-24.8-89.2-44.5-136.6-58.7c-36.3-10.8-69.6-17.9-101.8-21.5c-2.5-0.3-5.1-0.6-7.6-0.9l-0.1,0c-14.9-1.7-30.3-3.5-45.4-3.9
		c-21-0.6-42.5,0-63.2,0.6l-4,0.1c-25.1,0.7-50.2,4.5-71.5,8.2c-38.4,6.5-76.9,17-114.4,31.1C252.7-179.6,183-137.3,122-82.6
		C64.9-31.4,17.9,28.6-17.7,95.7c-18.9,35.7-34.4,73.1-45.8,111.1c-10.8,36.1-18.3,72.6-22.1,108.5c-2,18.9-4,41.2-3.7,64.2
		c0.3,20.5,1.3,40.3,3,58.6c1.8,19.2,4.3,37.7,7.5,54.9c8.9,47.7,23.8,94.5,44.2,139C9,727.6,73.6,808.7,157.4,873.3
		c71.9,55.4,153.1,94.1,241.4,115.1c37.9,9,75.7,14.3,112.3,15.7c18.6,0.7,37.7,0.2,56.1-0.4l0.1,0c3.5-0.1,6.9-0.2,10.4-0.3
		c25.1-0.7,50-4.5,71-8.2c37.3-6.5,74.6-16.7,110.8-30.5C827,939.2,889.4,902.3,945.1,855c37.4-31.7,70.7-67.2,99-105.6
		c37.1-50.3,65.9-104.2,85.6-160.3c19.9-56.4,31.1-116.5,33.3-178.6c0.8-21.6-0.1-45.2-2.7-72.1c-1.8-19.3-4.7-38.8-8.5-57.9
		c-9.5-48.4-25.4-95.8-47.1-140.8c-24.3-50.3-55.7-97.5-93.3-140.2c-22.9-26-48.3-50.3-75.3-72.3c-29.5-23.9-61.5-45.3-95-63.4
		c-70.5-38.2-145.5-61.6-222.8-69.7c-20.8-2.2-38.1-3.3-54.4-3.7c-13.3-0.3-26.9,0.4-40,1l-0.6,0c-4.1,0.2-8.3,0.4-12.4,0.5
		c-20.5,0.8-42.6,3.6-69.3,8.7c-46.6,8.9-91.6,23.1-133.7,42.1c-35.5,16-69.3,35.2-100.6,57c-28.7,20-55.9,42.7-81,67.5
		C109.3-15.5,93,2.7,78,21.7C44.6,64,17.3,109.6-3.1,157.2c-23,53.7-37.4,108.5-42.7,162.8c-1.9,19-3.1,39.1-3.6,59.6
		c-0.4,14.1,0.6,28.2,1.7,41.4c1.7,20.2,3.4,35.6,5.6,50c3.9,25.9,10.1,52.1,19,80.1C-8.2,599,13.3,645,40.6,688.1
		c31.2,49.1,69.4,93.4,113.7,131.8c34.6,30,72.1,55.7,111.5,76.6c49.3,26.1,101.1,45.1,153.9,56.3c28.5,6.1,57.2,10,85.2,11.7
		c30.8,1.9,54.5,1.7,76.7-0.7c2.7-0.3,5.4-0.6,8.1-0.9c15-1.6,30.4-3.2,45.5-5.5c37.8-5.7,76.2-16.3,117.2-32.3
		c41.7-16.3,81.9-37.7,119.4-63.5c25.9-17.9,50.7-38.1,73.6-60c24.3-23.2,46.7-48.7,66.6-75.5c31.7-42.8,57.3-89.8,76-139.5
		c15.9-42.1,26.5-86.3,31.5-131.2c2.1-19,3.3-39.6,3.7-64.8c0.1-4.5-0.2-9.2-0.4-13.7c-0.1-1.6-0.2-3.2-0.3-4.9
		c-0.1-2.3-0.2-4.5-0.3-6.8c-0.2-5.8-0.4-11.8-1-17.6c-2.3-23.3-5.3-43.6-9.1-62.1c-9.9-48.3-26.3-95.2-48.7-139.6
		c-22.4-44.2-50.7-85.6-84.2-123.1c-33.9-38-72.4-71.3-114.5-98.9c-43.6-28.7-90.9-51.3-140.5-67.2c-49-15.7-100-24.7-151.7-26.6
		c-24.2-0.9-45.2-0.3-64.3,1.7c-4.2,0.4-8.5,0.9-12.2,1.2c-9.4,0.9-19.1,1.8-28.5,3.3c-33.1,5.3-65.2,13.2-95.5,23.6
		c-31.6,10.8-62,24.3-90.5,40.1c-36.2,20-70.3,44-101.4,71.3C134.7,11.4,96,58,65.4,109.9C42.8,148.3,24.8,189.6,12,232.8
		C0.1,272.9-6.8,313.7-8.7,354.1c-1.6,33.7-0.4,64.4,3.5,93.8C-1.9,472.8,3,497,9.2,520c11.5,42.6,28.6,84,50.6,122.9
		c28,49.4,63,93.8,104,132.2c19.6,18.3,40.6,35.4,62.4,50.8c33.6,23.7,69.8,43.5,107.6,59.1c35,14.4,71.6,25.1,108.7,32
		c26.3,4.8,52.6,7.8,78.3,8.8c27.3,1,55-0.2,85-3.8c24.9-3,49.7-7.7,73.7-14.2c29.1-7.8,57.8-18.1,85.3-30.7
		c50-22.8,96.1-52.8,137.1-89.1c44.6-39.4,82.1-85.2,111.4-136.1c24.4-42.2,42.7-87.3,54.5-134.1c5-19.7,8.7-39.9,11.2-60
		c2.6-20.8,3.9-39.3,4-56.4c0.2-28.1-1.4-54.2-5.1-79.7c-3.1-21.9-7.6-43.4-13.3-63.8c-8.6-30.8-20.1-60.9-34.2-89.5
		c-20.2-40.8-45.5-79-75.3-113.5c-28.5-33-60.9-62.4-96.2-87.5c-42.5-30.2-88.9-54-138.1-70.7c-46.6-15.8-95.1-25-144.2-27.2
		c-36.9-1.7-73.1,0.4-107.6,6.3c-29.6,5-58.2,12.3-85.3,21.7C344.4-88.7,306.8-70.5,272-48.4c-29.8,19-57.9,41.1-83.5,65.8
		c-20.6,19.8-39.7,41.4-56.8,64.1c-19,25.4-35.8,52.7-49.9,81.3c-15.8,32.1-28.1,65.4-36.5,99C37.7,292.7,33,324,31.4,355
		c-1.4,26.1-1,47.5,1.2,67.3c1.7,15.2,3.6,32.4,6.4,48.9c5.3,30.4,14.1,60.8,26.9,92.8c15.5,38.7,36,75.7,61,110
		c20.6,28.3,44.4,54.8,70.7,78.7c20.5,18.7,42.6,35.8,65.6,50.8c40.6,26.6,84.4,47.1,130.1,61c29.7,9.1,56.8,14.9,82.9,17.7
		c2.4,0.3,4.9,0.5,7.3,0.8c11.7,1.3,23.7,2.7,35.6,3.1c40.4,1.4,77.4-1.2,113.1-8c32-6.1,62.7-15,91.5-26.3
		c52.1-20.6,100.3-49.4,143.2-85.7c38.8-32.8,72.3-71,99.6-113.6c29.6-46.1,51.1-96.4,63.9-149.4c7.3-30.3,11.5-61.9,12.7-93.8
		c1-27.5-0.3-52.3-4-76c-2.3-15-4.9-31-8.5-46.9c-8.4-36.9-21.8-73.5-40-108.6C964,126.2,929,80.1,886.6,40.8
		c-20.8-19.3-42.9-36.7-65.7-51.6c-48.8-32-102.2-55-158.8-68.2c-23.5-5.5-45.1-9-65.9-10.5l-2.5-0.2c-18.3-1.4-37.3-2.9-55.9-1.2
		c-4.5,0.4-9.2,0.6-13.6,0.8c-6.1,0.3-12.4,0.6-18.5,1.4l-3.5,0.4c-15.9,2-32.4,4-48.3,7.3c-55.1,11.5-107.4,32.5-155.5,62.5
		C242.5,16.3,195,60.8,157.3,113.8C122.1,163.2,97.1,217.7,83,275.8c-7,29-11.2,59.4-12.3,90.2c-0.9,23.2,0.3,47.8,3.6,72.9
		c3.1,24,8,47.6,14.8,70.3c15,50.7,38.7,98.5,70.3,141.9c26,35.7,56.8,67.7,91.6,95c43.1,33.8,91.2,59.8,143.1,77.3
		c19.7,6.6,39.7,11.9,59.5,15.6c17.1,3.2,35,5.6,53.4,6.9c23.8,1.8,44.6,1.9,63.7,0.3c15.9-1.3,32.7-3.4,54.5-7.1
		c25.8-4.3,52.3-11.7,81.1-22.8c31.3-12.1,61.7-27.7,90.1-46.6c38.8-25.6,73.5-56.8,103.2-92.6c27.6-33.3,50.2-69.9,67-108.7
		c16.8-38.6,27.9-78.6,33-118.8c2.7-21.5,3.9-39.2,3.7-55.8c-0.1-9.6-0.7-19.3-1.3-28.7c-0.2-2.7-0.3-5.4-0.5-8.1
		c-1-17.6-3.9-36.6-8.8-58.2c-8.9-39.1-23.1-76.7-42-111.6c-30.7-56.6-72.4-105.6-124-145.5c-27.1-21-56.6-38.8-87.7-53.1
		c-35.1-16.1-71.7-27.5-108.9-34c-19.8-3.5-40.4-5.7-61.3-6.7c-21.5-1-44.2,0-69.3,3.1c-23.2,2.9-46.6,7.7-69.4,14.3
		C397.5-25,366-11.8,336.8,4.6C296.3,27.4,259.7,56,228.1,89.7c-21.7,23.2-40.8,48.3-56.7,74.7c-23.7,39.4-40.8,81.7-50.8,125.8
		c-5.2,22.8-8.4,45.2-9.5,66.5c-1.1,21.3-0.9,40.3,0.6,58c1.7,19.8,4.3,37.3,7.9,53.7c8.3,38.4,21.9,75.2,40.3,109.4
		c32.7,60.8,78.2,112,135.3,152.2c31.5,22.2,66,40,102.3,53c23.9,8.5,48.4,14.9,73,19c24.6,4.1,47.5,6,70.1,5.9
		c8.1,0,15.5-0.3,22.7-1c2.9-0.3,5.9-0.5,8.8-0.7c11.9-1,24.2-2,36.1-3.8c22.6-3.5,45.9-9.4,69.1-17.4
		c53.9-18.7,103-47.4,145.8-85.4c36.7-32.6,67.2-70.9,90.7-113.9c21.4-39.1,36-80.7,43.3-123.5c2.4-13.8,4.1-29,5.3-46.3
		c0.8-11.3,0.8-23.7,0.1-36.7c-0.9-15.4-1.9-31.8-4.5-47.9c-5.7-36.5-16.8-72.1-32.8-105.9c-31.4-66.1-77.9-121.2-138.3-163.8
		c-27.6-19.5-57.9-35.6-89.9-47.8C670.5,3.7,645.4-3.2,620.6-7c-18.7-2.9-35.2-4.6-50.4-5.3c-27.8-1.3-55.3,0.3-81.5,4.8
		c-23.4,4-44.2,9.2-63.7,15.8c-68.7,23.5-128,63-176.2,117.4c-25.2,28.4-46.1,60.2-62.2,94.5c-15.1,32.2-24.9,63-29.9,94.3
		c-2.2,13.5-4.8,31.4-5.7,49.3c-1.6,30.9,0.8,61.8,6.9,91.7c7.2,35.1,19,68.6,35.2,99.7c21.4,41.2,49.7,78.1,84.1,109.7
		c25.5,23.4,53.8,43.4,84.1,59.3c49.5,26,102.8,40.7,158.4,43.9c27.7,1.6,55,0.2,81.1-4.1c34.8-5.8,68.4-16,99.6-30.4
		c54.3-25,101.1-61.2,139.1-107.5c33.1-40.4,57-86.1,70.9-135.8c7.5-26.7,11.8-53.6,12.8-80c0.9-23.5,0-44.5-2.8-64.1
		c-2.6-18-5.9-33.9-10.1-48.6c-14.6-51.6-39.9-98.7-75.2-139.8c-28.8-33.6-62.7-61.5-100.7-83c-55.4-31.3-115.6-47.5-178.9-48.1
		c-16.4-0.2-33.4,1-52.1,3.6c-21.4,2.9-42.3,7.8-62.3,14.4c-67,22.2-123.9,60.9-169.1,115.1c-29.1,34.8-50.9,74.4-64.9,117.6
		c-9.4,29-14.9,59.6-16.3,90.8c-0.4,8.5,0,17.3,0.4,25.7c0.1,3.4,0.3,6.7,0.4,10.1c0.5,16.4,3,33.9,7.6,53.5
		c14.1,59.6,42.6,113,84.7,158.4c26.1,28.2,56.5,52,90.3,70.5c49.8,27.3,103.9,41.8,160.8,43c17.2,0.4,35.1-0.8,54.7-3.6
		c25.9-3.7,51.5-10.4,76.3-20.1c40.4-15.9,77-38.7,108.7-68c43-39.7,74.1-87.4,92.5-141.6c9.4-27.8,14.9-57.3,16.5-87.6
		c1-20.5-0.2-41.4-3.7-63.9c-4.5-28.9-13-56.9-25.1-83.3c-21-45.6-51.2-85.2-89.8-117.6c-32.4-27.2-68.9-47.7-108.6-60.9
		c-34.6-11.6-70.3-17.2-106.2-16.8c-7.1,0.1-14.4,0.7-21.4,1.2c-2.7,0.2-5.4,0.4-8.1,0.6c-17.2,1.2-34.8,4.5-53.6,10
		c-75.3,21.8-135.9,64.8-180,127.7c-40.7,58.1-59.5,122.8-55.8,192.3c1.1,19.9,3.9,39.1,8.5,57.1c13.7,53.6,40.8,101.3,80.5,141.8
		c21.7,22.1,46.8,41,74.6,56.1c36.8,20,77,32.1,119.4,36.1c21.6,2,44.3,1.4,67.6-1.7c23.7-3.3,46.6-9.1,67.8-17.5
		c58.3-22.8,105.6-59.8,140.7-109.8c38.7-55.1,56.5-116.3,52.8-181.9c-1-18.8-3.9-37.3-8.6-55c-11.7-44.7-33.7-85.1-65.1-120.2
		c-26.7-29.8-58.7-53.5-94.9-70.5c-33.7-15.8-69.4-24.7-106-26.6c-19.8-1-39-0.1-57.2,2.7c-25.9,4-50.6,11.3-73.6,21.6
		c-37.2,16.7-69.7,40.4-96.7,70.5c-22.3,24.9-39.7,52.6-51.5,82.4c-14.2,35.8-20.5,72.8-18.8,110c1,21.7,4.5,42.7,10.3,62.4
		c13.3,44.8,36.7,83.7,69.5,115.6c29.7,29,62.7,50.2,98,63.3c35.6,13.1,74.5,18.2,115.7,15.1c20.4-1.5,40.9-5.8,60.9-12.7
		c51.4-17.8,93.7-48.1,125.9-90.2c37.3-48.7,54.9-103.7,52.4-163.5c-1-22.9-5.1-45.1-12.2-66.1C772.2,262,737.9,217.8,689,185.5
		c-39.1-25.9-83.5-39.7-131.7-40.9c-8.2-0.2-16.6,0.5-24.7,1.2c-1.7,0.1-3.5,0.3-5.2,0.4c-17.5,1.4-35.2,5.3-54.1,12
		c-42.3,14.9-78.4,39.7-107.2,73.7c-33,39-51.7,84.1-55.4,134c-1.9,25.5,0.5,50.2,7.1,73.5c16.7,59.3,51.7,105.7,104,138
		c40.3,24.9,84.1,36.1,130.1,33.2c9.9-0.6,20.5-1.4,30.7-3.4c48.7-9.7,90.2-32.9,123.5-68.9c32.8-35.6,51.8-77.2,56.4-123.8
		c2.2-22,1.1-43.2-3.3-63c-11.3-50.9-38.2-92.9-80.1-124.8c-33.2-25.4-71.8-39.7-114.7-42.6c-13.8-0.9-28.4,0-44.6,2.7
		c-42,7-78.7,25.5-109.1,55c-35.1,34-55.2,75.3-59.8,122.7c-2.1,21.3-0.4,42.6,5,63.2c10.7,40.9,33,75.3,66.5,102.2
		c31.3,25.2,67.9,39.3,108.6,41.8c16.3,1,33.1-0.6,51.5-4.8c36.1-8.3,70-28.3,95.4-56.5c25.7-28.5,41.7-64.2,44.9-100.5
		c2.3-26.1-1-51.2-9.8-74.7c-13.4-35.5-36.4-64-68.2-84.6c-37.5-24.3-78.2-32.6-121.2-24.7c-45.3,8.3-81.5,32.2-107.7,71
		c-21,31.1-29.4,65.8-24.9,102.9c3.3,27.5,14,52.5,31.6,74.5c26.2,32.7,60,51.8,100.4,57c22.6,2.9,44.8,0.4,66-7.3
		c29.8-10.8,53.6-29.1,70.7-54.4c22.8-33.6,29.6-69,20.3-105.1c-13.4-52.2-46.9-85.4-99.6-98.8c-22.9-5.8-46.3-4.3-69.7,4.3
		c-30.5,11.3-53.3,31.1-67.8,59c-13.9,26.8-16.8,54.7-8.6,83c8,27.4,24.4,49.1,48.7,64.4c22.1,13.9,46.2,19.2,71.6,15.7
		c24.5-3.4,45.5-14.3,62.5-32.4c18.2-19.5,27.2-42.4,26.6-68.2c-0.4-21.5-8-41-22.5-57.9c-26.5-30.9-69.3-40.7-104.2-23.7
		c-28.6,13.9-44.4,36.3-46.9,66.4c-1.7,20.9,4.9,39.5,19.7,55.2c25.1,26.6,63.8,29.9,91.8,7.8c23.4-18.4,29.3-50.5,13.7-74.6
		c-9.9-15.3-24.2-23.5-41.3-23.8c-0.3,0-0.7,0-1,0c-18.1,0-32,8.6-40.2,24.8c-4.8,9.5-5,20.5-0.6,30.2c4.4,9.5,12.7,16.2,22.7,18.6
		c12,2.9,24.7-3.6,29.1-14.7c1.8-4.6,1.1-10.4-1.4-14.7c-1.4-2.3-3.8-4.3-6.6-4.9c-2.5-0.6-6.4,1.6-8.5-0.4c-2.7-2.5,1.6-5,3.7-5.5
		c12.9-2.8,21.9,11.5,19.6,23c-1.5,7.3-6,13.7-12.9,18.1c-6.4,4.1-14,5.8-20.8,4.7c-11.4-1.9-21-8.1-27-17.7
		c-6-9.6-7.6-21.5-4.3-32.8c5.9-20.2,28-38.8,57.2-33.7c17.1,3,31.8,13.7,40.4,29.3c8.7,15.8,9.7,34.5,2.8,51.2
		c-13.2,32-47.6,49.2-81.9,40.9c-23.9-5.8-43.3-22-53.2-44.6c-10.1-22.9-8.9-48.5,3.2-70.4c18.9-34.1,59-52.5,97.5-44.8
		c23.6,4.7,45.5,19,60.1,39.3c15.3,21.2,21.4,46.9,17.3,72.3c-3.5,21.6-13.4,40.6-29.4,56.5c-18.9,18.7-41.7,29.6-68,32.3
		c-14.2,1.5-28.6,0.1-42.7-4.1c-28.6-8.5-51.3-25.9-67.3-51.8c-15.4-24.7-20.7-51.7-15.9-80.3c4.1-24.3,14.8-45.6,31.8-63.4
		c32.6-34,72.6-47.5,118.8-40c32.8,5.3,60.4,21.6,82,48.3c30.3,37.4,39.1,79.5,26.2,125.1c-8.4,29.6-25.8,54.7-51.9,74.5
		c-36.8,28-78.5,37.3-124.2,27.8c-37.6-7.9-68.7-27.9-92.4-59.6c-28.8-38.4-38.1-81.7-27.7-128.8c5.7-25.6,17.4-48.6,34.9-68.2
		c45.1-50.6,100.9-69.7,165.8-56.6c36.5,7.4,70.5,26.9,95.7,55.1c25.7,28.7,41.2,64.2,44.7,102.5c1.8,19.3,0.2,38.6-4.6,57.3
		c-9.6,36.8-28.8,68-57.1,92.7c-45.6,39.9-99.1,55.3-158.9,46c-36.1-5.7-68.6-21.2-96.5-46.1c-42.6-38-65.4-85.1-67.8-140
		c-1-23.2,2.1-45.8,9.2-67.2c14-42,39.4-76.6,75.3-102.6c48.6-35.2,103.1-47.8,161.9-37.6c40.1,7,75.9,24.7,106.5,52.6
		c45.2,41.3,69.4,92.3,72.2,151.5c0.9,19-0.8,37.7-5.1,55.6c-12.4,52.1-40.6,95.2-83.8,128c-41.5,31.6-88.5,47.6-139.5,47.6
		c-5.6,0-11.3-0.2-16.9-0.6c-17-1.1-33.6-4.1-49.2-8.8c-43-13-79.9-36.3-109.5-69.3c-36.7-40.9-57.2-88.9-60.9-142.6
		c-1.6-23,0.5-46.2,6.2-69c12.8-51,40-94.2,81-128.5c44.5-37.2,96.1-57,153.3-59c18.8-0.6,36.8,0.6,53.5,3.8
		c27.2,5.2,52.7,14.3,76,27.2c44.5,24.6,79.4,59.4,103.9,103.5c16,29,26,60.1,29.6,92.6c2,18.2,2.2,34.9,0.6,51
		c-1.8,18.5-5.6,36.7-11.3,53.9c-13.1,40.1-35.3,75.9-66.1,106.3c-29.3,29-64,50.6-103.3,64.3c-23,8-45.7,12.6-67.3,13.8
		c-17.1,0.9-34.2,0-47.2-0.8c-24.8-1.7-49.6-7.8-75.9-18.7c-53.8-22.3-97.3-58.4-129.3-107.2c-24-36.5-38.4-77.2-42.9-120.8
		c-2.3-21.9-1.6-44.6,1.9-67.2c4.2-27.4,12.4-53.4,24.3-77.5c27.8-56.3,70.4-100.2,126.7-130.2c36.1-19.3,75.5-30.4,117-33.1
		c29.5-1.9,58.5,0.7,86.2,7.6c58.7,14.7,109.2,44.7,150.2,89.2c24.1,26.2,43.3,56.3,57,89.7c10.5,25.6,17.2,52.6,19.8,80.3
		c1.9,19.9,1.7,40.2-0.7,60.4c-2.2,18.9-5.9,36.2-11.2,52.8c-16.9,53.1-47.1,99.2-89.6,137c-29.5,26.2-63.5,46.4-101,60.2
		c-20.2,7.4-42.3,12.8-65.6,16.1c-13.9,1.9-29,2.6-47.8,2.3c-15.2-0.3-30.8-1.9-46.5-4.7c-30-5.5-58.9-15.1-85.8-28.8
		C352.2,637.4,312,602.5,281,558.2c-32.9-47.1-51.6-99.5-55.6-156c-2.2-30.8,0.3-61.4,7.4-90.9c12.6-52.3,37.4-99.4,73.6-139.9
		c34.3-38.4,76-67.7,124-87.3c38.4-15.7,79.6-23.8,122.3-24.1c4.2,0,8.4,0.2,12.5,0.4l0.3,0c2.5,0.1,5.1,0.3,7.7,0.4
		c17.5,0.6,35.8,3.2,56.1,8c53.3,12.6,101.6,37.4,143.6,73.5c40,34.5,70.8,76.5,91.4,124.9c14.6,34.2,23.1,70,25.2,106.3
		c1.5,24.9,0.2,49.2-3.6,72.3c-4.8,28.6-13,56.1-24.5,81.7c-23.7,53-59.8,98.3-107.2,134.8c-30.4,23.4-64.5,41.6-101.5,54.2
		c-35.8,12.2-72.7,18.3-109.8,18.4c-13.2,0-26.6-1.2-39.5-2.4l-5.9-0.5c-17.3-1.5-35.4-5.3-57-11.8c-41-12.4-79.2-31.9-113.5-57.9
		c-39.5-30-71.8-66.6-96-108.9c-29-50.9-44.5-105.2-45.8-161.4c-0.6-23.8,0.8-45.3,4.2-66c5.4-33.1,15.5-65.2,30.1-95.2
		c21.4-44.3,51.2-83.4,88.5-116.3c30.8-27.2,65.7-49.1,103.6-65.1c37.7-15.9,77.2-25.3,117.3-27.8c23-1.5,45.4-0.9,66.6,1.6
		c22.6,2.7,42.9,6.8,62.1,12.5c56.9,16.9,107.8,45.9,151.4,86.3c40.2,37.2,71.4,81.6,92.6,131.8c15.7,37,24.9,75.8,27.5,115.3
		c1.5,22.6,1,44.8-1.6,66.1c-2.7,22.7-7.2,44.6-13.5,65.1c-16,52.1-42.8,99.6-79.6,141.1c-36.5,41.2-80.6,73.9-131,97.3
		c-43.5,20.2-89.6,31.9-136.9,34.9c-29.1,1.8-57.5,0.6-84.3-3.7c-25.8-4.1-49.2-10-71.5-18C353.7,731.3,303,699,260,655.9
		c-32.1-32.3-58.2-69.2-77.5-109.7c-16.4-34.2-27.4-69.6-32.8-105.2c-4.5-29.9-5.9-55-4.3-79c1.2-17.2,2.9-32.5,5.3-46.8
		c5.9-35,17.1-69.4,33.2-102.4c21.5-44.1,50.8-83.8,87.1-118.1c26-24.6,54.7-45.6,85.4-62.4c53-29.1,110.1-45.9,169.6-50
		c27.6-1.9,55.4-1,82.8,2.6c18.5,2.5,37.5,6.4,56.4,11.9c49.8,14.3,96.2,37.4,137.7,68.6c31.3,23.5,59.3,51.3,83.2,82.6
		c22.9,30.1,41.6,63,55.5,97.9c11.3,28.3,19.2,57.6,23.6,86.8c3.5,22.8,5.1,46.6,4.9,70.5c0,2.1-0.2,4.2-0.4,6.2
		c-0.2,1.6-0.3,3.2-0.4,4.8c-0.7,20-3.5,41.1-8.5,64.4c-9.4,44.1-26.4,86.6-50.6,126.5c-25.9,42.7-59.1,80.5-98.6,112.3
		c-43.5,35-92.4,61.1-145.4,77.5c-29,9-59.2,14.8-89.8,17.4c-23.7,2-44.5,2.1-63.6,0.2l-4.1-0.4c-14.5-1.4-29.5-2.8-44.1-5.4
		c-31.8-5.5-63.7-15.2-95-28.8c-42.1-18.3-81.2-43.1-116.1-73.6c-31-27.1-58-58.5-80.4-93.1c-20.4-31.6-36.5-65.4-47.9-100.6
		c-7-21.6-12.2-43.7-15.6-65.7c-2.8-18.1-4.3-35-4.7-51.7c-0.2-8.8,0.1-17.7,0.4-26.4l0-0.2c0.1-3.5,0.3-7,0.4-10.6
		c0.4-16.3,2.6-33.8,6.8-55.2c6.1-31.2,15.9-61.9,28.9-91.2c19.4-43.7,46-84.1,78.9-120c26.2-28.6,56.1-53.9,88.8-75
		c29.1-18.8,60-34.1,91.8-45.7c28.6-10.4,58.1-17.8,87.7-22.2c23.7-3.5,44.5-5,63.8-4.7c17.4,0.2,35.1,1.7,50.6,2.9
		c19.4,1.6,39.7,5.3,63.9,11.6c64.4,16.9,123.4,47.1,175.5,89.8c34.8,28.5,65.2,61.8,90.3,98.9c18.9,27.9,34.6,57.7,46.7,88.4
		c12.1,30.8,20.6,62.5,25.4,94.4c3.7,24.6,5.4,48.9,5,72.1c-0.1,7.6-0.4,13.7-0.9,19.4c-0.2,2.3-0.4,4.6-0.6,6.9l0,0.1
		c-1,11.2-2,22.7-3.6,34.1c-4.2,29.9-12.1,59.6-24.1,91c-12.5,32.7-28.9,64-48.7,93.2c-23.5,34.5-51.4,65.8-83,92.9
		c-37,31.8-78.1,57.6-122.1,76.7c-38.2,16.5-78.3,27.9-119,33.7c-20.4,2.9-41.2,4.6-61.6,4.8c-29.5,0.4-60.4-2.3-91.7-8.2
		c-31.6-5.9-62.9-15.2-93.2-27.8c-40.9-17-79.3-39.5-114-67c-28.2-22.3-53.9-47.6-76.5-75.4c-27.1-33.3-49.6-70-66.9-109.3
		c-13.1-29.7-23.1-61.2-29.8-93.6c-4.8-23.2-7.6-45.9-8.5-67.5c-0.5-12.9-0.1-26,0.3-38.6c0.1-4.6,0.3-9.1,0.4-13.6
		c0.4-19.7,3.7-39.2,6.8-55.7c7.5-40.1,20.6-79.3,38.7-116.5c17.9-36.9,40.7-71.6,67.7-103.2c18.6-21.8,39.2-42.1,61.2-60.3
		c27-22.3,56.5-41.9,87.7-58.2c26.2-13.6,53.4-24.9,80.8-33.3c26.5-8.2,50.2-13.6,72.4-16.5c2.5-0.3,5.1-0.7,7.6-1l0.6-0.1
		c11.2-1.5,22.9-3.1,34.4-3.7c22.2-1.1,43.9-0.9,64.4,0.5c18.9,1.3,37.4,3.7,55,7c35,6.6,69.5,17,102.5,31.1
		c49.1,21,94.7,49.8,135.6,85.6c22.6,19.8,43.7,42.1,62.7,66.2c29,36.9,52.5,76.9,69.7,119c9.5,23.2,15.9,42.5,20.2,60.6
		c4.8,20.4,7.9,36,10.2,50.7c2.8,17.7,4.4,33.2,4.9,47.4c0.5,13.8,0.1,27.8-0.3,41.4c-0.1,4-0.3,8-0.4,12
		c-0.5,18.3-2.9,37.3-7.8,61.9c-7.3,36.1-18.7,71.4-33.9,104.9c-21.8,48.2-51.1,92.6-87.1,132.1c-24.3,26.6-51.4,50.8-80.6,71.7
		c-52.6,37.7-110.8,65-173.1,81.1c-22.1,5.7-45.5,10-69.4,12.8c-13.8,1.6-28.4,2.4-43.5,2.5c-15.8,0.1-36.5,0-57-1.5
		c-18.5-1.4-38.3-4.4-60.5-9.1c-46.8-9.9-92-26.4-134.4-49c-53.8-28.6-101.8-65.9-142.6-110.8c-22.6-24.8-42.7-51.7-60-80
		c-20.5-33.5-37.2-69.8-49.7-107.7c-7.4-22.6-13.2-45.8-17.1-69c-4.8-28.1-7-53.2-6.8-76.7c0.1-17.2,0.3-34,1.8-50.8
		c1.8-20.9,5.2-42.6,10.2-64.6c8.8-38.8,22.2-76.6,39.8-112.3C96.8,120,122.2,82,152.4,47.3c30.1-34.6,64.8-65.4,103.3-91.7
		c34-23.2,71.1-42.6,110.3-57.7c52.1-20,107.2-31.5,163.7-34.3c28-1.3,55.6-0.4,82.2,2.7c22.9,2.7,44,6.4,64.4,11.2
		c31.3,7.4,62.2,17.9,92.1,31.2c44,19.6,85.1,44.7,122.2,74.7c28.7,23.3,55.2,49.6,78.8,78.2c25.4,30.8,47.2,64.3,64.9,99.4
		c20.7,41.1,36,84.7,45.3,129.6c5.3,25.4,8.4,49,9.7,72.1c1.1,20.2,1.8,44.1-0.7,68.2c-0.3,2.4-0.5,4.8-0.8,7.2l-0.1,1.1
		c-1.6,15.2-3.2,30.8-5.9,46.1c-6.3,36.5-17.4,73.6-33,110.1c-21.5,50.4-50.3,97.2-85.9,139c-22.3,26.2-47,50.5-73.6,72.3
		c-32.8,26.8-68.6,49.8-106.5,68.4c-41.7,20.5-85.8,35.6-131.3,45.1c-29.3,6.1-58,9.7-85.1,10.7c-17.4,0.7-35.9,0.4-58.1-0.8
		c-17.8-1-35.5-3.2-50.4-5.2c-32.5-4.4-65.5-12.7-100.8-25.4c-52.9-18.9-102.5-45.6-147.6-79.4c-43.2-32.3-81.6-70.6-114.1-113.6
		C64.5,666,39.7,621.5,21.4,574.5C3.5,528.4-7.8,481.4-12.2,435c-1.6-16.4-3.3-38-2.9-59.7c0.2-8.3,0.7-16.7,1.2-24.8l0-0.2
		c0.2-3.7,0.5-7.4,0.7-11.1c0.9-17.5,3.4-36.2,7.7-58.7c7.6-39.3,19.8-78.4,36.5-116.1c13.9-31.5,30.8-61.8,50.2-90
		c23.3-33.9,50.2-65.3,80-93.4c17.8-16.8,36.7-32.5,55.9-46.6c35.1-25.7,72.8-47.3,112.1-64.2c49.4-21.2,99.9-35.2,150.2-41.6
		c27.8-3.5,50.7-5.1,72.1-5c10.4,0.1,21,0.5,31.3,0.9l6.1,0.2c5.6,0.2,11.4,0.4,17.1,1.2l0.8,0.1c16,2.1,32.5,4.3,48.8,7
		c31.1,5.3,62.4,13.8,95.7,26.2c49.7,18.4,96.7,43.7,139.9,75c34.5,25.1,65.9,53.5,93.5,84.6c16.7,18.8,32.2,38.6,46.2,59
		c25.3,36.8,46.3,76.6,62.3,118.4c21.2,55.3,33.4,113.5,36.1,172.9c1.1,23.8,0.5,48.1-1.7,74.3c-1.8,21.2-5.2,43.4-10.1,66.2
		c-12,55.1-32,107.9-59.6,157c-32.2,57.3-73.5,108.7-123,152.9c-21.4,19.1-44.4,36.8-68.4,52.8c-57.3,37.9-119.7,65.4-185.4,81.7
		c-27.3,6.8-55,11.5-82.4,14c-24.2,2.3-44.2,3.2-62.8,2.9c-4.6-0.1-9.4-0.3-13.9-0.5l-0.3,0c-3.1-0.1-6.2-0.3-9.3-0.4
		c-18.3-0.6-37.4-2.5-62-6.2c-30.6-4.7-61.2-12-91-21.7c-82.6-27.1-157.4-71-222.3-130.6c-42.2-38.8-78.8-83.6-108.8-133.1
		c-23.6-39-42.6-80.8-56.4-124.1c-11-34.4-18.1-66.3-21.8-97.4c-2.1-17.9-4.1-37.1-4.9-56.8c-0.9-20.9-0.3-43,1.6-65.5
		c2-23,4.9-44.1,9-64.7c7.7-39.1,19.7-77.7,35.6-114.7C17.6,94.7,53.6,38.6,98.6-11.3c28.4-31.5,60.6-60.5,95.6-86.2
		c39.6-29,82.7-53.2,128-72c47.3-19.6,95-32.7,141.8-39.2c17.4-2.4,36.2-4.8,55.1-5.9c13.7-0.8,27.6-0.7,41-0.6l0.3,0
		c3.8,0,7.6,0.1,11.4,0.1c24.6,0.1,50.6,2.5,81.8,7.7c33.3,5.5,66.5,14,98.7,25.2c76.8,26.7,146.9,67.7,208.5,121.8
		c35.2,30.9,66.8,65.7,94,103.4c37.4,51.9,66.3,108.3,85.7,167.6c12.2,37.4,20.1,72.2,24.1,106.5c2,17.1,4.1,37,4.9,56.8
		c1.1,29.4-0.1,59.1-3.7,88.4c-3.2,26.2-7.6,50.4-13.5,74c-11.9,47.8-29.9,94.5-53.6,138.7c-26.9,50.3-61.1,97.4-101.7,139.8
		c-17.7,18.5-37.6,36.7-59.1,54.1c-37.3,30.2-78.1,56.2-121.2,77.4c-70.2,34.4-145.7,55.3-224.5,62.1c-15.1,1.3-30.4,1.7-45.3,2
		l-3.9,0.1c-5,0.1-10.1-0.1-15-0.4l-0.1,0c-3.3-0.2-6.7-0.3-10-0.4c-19.4-0.3-40.1-2.1-65.2-5.6c-25.7-3.6-51.7-9-77.2-16.1
		c-46.9-13-92.4-31.3-135.1-54.5c-47.1-25.5-91-57-130.5-93.3c-40.7-37.5-76.4-79.9-106-126C-28.2,664.2-53,610.5-69.6,554.6
		c-9.9-33.3-16.4-63.7-19.8-93c-2-17-4.2-36.2-4.9-55.2c-0.9-24.3-1.3-50.3,1.8-76.5c0.5-4.3,1-8.5,1.4-12.8
		c1.5-13.3,3-27.1,5.3-40.6c6-35.1,15.4-70.4,28.1-104.9C-28.9,93.3,14.7,21.9,71.8-40.7c39.3-43.1,84.3-80.9,133.7-112.2
		c97.4-61.7,204.8-95.8,319.4-101.4c31.9-1.6,60.8-0.9,88.5,2.1c20.9,2.2,41.3,5.5,56.8,8.1c33.2,5.5,67,14.6,103.4,27.8
		c66.9,24.2,129.4,59,185.8,103.5C993.5-86,1025-55.8,1053.1-23c30.8,35.9,57.7,74.9,79.8,115.8c21.6,40,39,82,51.6,125
		c9.8,33.6,16.3,64.5,19.8,94.6l0.1,0.6c2.1,17.7,4.2,36,4.8,54.1c0.9,27.4,1.3,63.5-3.9,99.9c-0.4,2.9-0.8,5.8-1.2,8.7
		c-1.9,13.7-3.9,28-6.7,41.9c-5.7,29.3-14.1,59.3-24.8,89.1c-28.5,79-71.7,151.5-128.5,215.5c-39.4,44.3-84.4,83.4-133.9,116
		C866,967.2,819,991,770.4,1008.8c-36.4,13.4-74,23.6-111.8,30.4c-23.2,4.2-46.9,7.2-70.5,8.9c-10.5,0.8-21.2,0.9-31.6,1.1l-0.2,0
		c-4.7,0.1-9.5,0.2-14.3,0.3c-1.3,0-2.6,0.1-4,0.2v13.6h32.6c0.2,0,0.3-0.1,0.5-0.1c0.8-0.2,1.7-0.4,2.6-0.5
		c5.7-0.5,11.3-0.9,17-1.4c10.8-0.9,21.9-1.8,32.8-2.9c23.6-2.3,48.2-6.7,77.5-13.9c51.7-12.6,101.8-31.2,149-55.3
		c47.7-24.4,92.6-54.2,133.4-88.7c22.7-19.1,44-39.6,63.4-60.8c39.5-43.1,73.2-90.6,100.1-141.2c25.1-47.3,44.4-97.1,57.2-148.2
		c7-27.8,11.6-52.6,14.2-75.8c1.2-10.8,2.1-21.9,3-32.6l0-0.4c0.4-5.2,0.9-10.5,1.3-15.7c0.1-0.9,0.3-1.6,0.5-2.3l0.1-0.4v-57.9
		C1223.3,364.8,1223.2,364.4,1223.2,364z"/>
</g>
<rect x="434.2" y="739" width="221.8" height="41"/>
<path fill="#FFFFFF" d="M566.5,745.6c0.5,0,1,0.5,1,0.5l-8.9,19c-1,0-3.3,0.1-3.9,0.1c-0.5,0-1-0.5-1-0.5l-3-19
	c1.8,0,4.2-0.1,4.8-0.1c0.5,0,1,0.5,1,0.5l0.9,9.3c0.1,0.8,0.1,1.9,0.1,3.1c0.3-1.3,0.6-2.5,1-3.3l3.7-9.4
	C563.9,745.8,565.9,745.6,566.5,745.6L566.5,745.6z M575.7,755c0,2.1-1.2,3.4-4,4l-3,0.6c0.2,1.3,1.1,1.9,2.4,1.9
	c1.7,0,2.8-1.3,2.8-1.3s0.8,0.5,0.8,1.4c0,1.7-2.6,3.6-5.7,3.6c-3.1,0-5.2-2-5.2-5.3c0-3.8,2.7-9.1,7.6-9.1
	C574.1,751,575.7,752.6,575.7,755L575.7,755z M570.6,757c0.6-0.2,0.8-0.7,0.8-1.3c0-0.6-0.2-1.4-0.9-1.4c-1.2,0-1.7,1.9-1.9,3.4
	L570.6,757z M583.9,751c2.4,0,4.3,1.3,4.3,3c0,2.1-2.6,2.9-2.6,2.9s-0.7-2.3-2.5-2.3c-1.2,0-1.8,1.2-1.8,3.7c0,2.3,0.6,3.3,2.1,3.3
	c1.5,0,2.5-1,2.5-1s0.9,0.5,0.9,1.4c0,1.7-2.5,3.4-5.5,3.4c-3.2,0-5.1-2-5.1-5.3C576.1,756.3,578.9,751,583.9,751L583.9,751z
	 M595.6,748c0.6,0,1,0.5,1,0.5l-0.5,2.9h3.1l-0.7,2.2c-0.2,0.7-0.6,1.1-1.3,1.1h-1.6l-0.9,5.7c-0.1,0.9,0.1,1.3,0.7,1.3
	c0.6,0,1.1-0.3,1.1-0.3s0.9,0.5,0.9,1.4c0,1.4-2,2.8-4.5,2.8c-2.6,0-3.7-1.6-3.3-4.5l1-6.3H589l0.7-2.3c0.2-0.6,0.7-1,1.3-1h0.8
	l1-2.7C594,748.3,595.1,748,595.6,748L595.6,748z M610.5,755c0,2.1-1.2,3.4-4,4l-3,0.6c0.2,1.3,1.1,1.9,2.4,1.9
	c1.7,0,2.8-1.3,2.8-1.3s0.9,0.5,0.9,1.4c0,1.7-2.6,3.6-5.7,3.6c-3.1,0-5.2-2-5.2-5.3c0-3.8,2.7-9.1,7.6-9.1
	C608.9,751,610.5,752.6,610.5,755L610.5,755z M605.4,757c0.6-0.2,0.8-0.7,0.8-1.3c0-0.6-0.2-1.4-0.9-1.4c-1.2,0-1.7,1.9-1.9,3.4
	L605.4,757z M622.9,755c0,2.1-1.2,3.4-4,4l-3,0.6c0.2,1.3,1.1,1.9,2.4,1.9c1.7,0,2.8-1.3,2.8-1.3s0.9,0.5,0.9,1.4
	c0,1.7-2.6,3.6-5.7,3.6c-3.1,0-5.2-2-5.2-5.3c0-3.8,2.7-9.1,7.6-9.1C621.2,751,622.9,752.6,622.9,755L622.9,755z M617.8,757
	c0.6-0.2,0.8-0.7,0.8-1.3c0-0.6-0.2-1.4-0.9-1.4c-1.2,0-1.7,1.9-1.9,3.4L617.8,757z M633,760.2c0,0,1,1,1,2.5c0,2.1-1.8,2.7-3.3,2.7
	c-2,0-3.4-0.9-4.9-1.4c-0.4,0.5-0.8,1-1.2,1.4c0,0-2.2-0.1-2.2-1.6c0-1.8,3.1-5,6.4-8.5c-0.4-0.1-0.7-0.1-1.1-0.1
	c-1.9,0-2.6,0.9-2.6,0.9s-1-1.1-0.9-2.5c0.1-2,2-2.5,3.5-2.5c1.6,0,2.7,0.6,3.9,1.1l0.9-1.1c0,0,2.2,0.1,2.2,1.6
	c0,1.8-3,4.9-6.2,8.3c0.7,0.2,1.3,0.3,1.9,0.3C632.2,761.3,633,760.2,633,760.2L633,760.2z M647.3,764.2c-0.8,4.8-4.1,7.3-8.3,7.3
	c-2.7,0-4.7-1.4-4.7-3c0-1.1,0.9-1.6,0.9-1.6s0.9,0.8,2.7,0.8c1.7,0,4-0.7,4.4-3.3l0.3-2c-1.1,1.6-2.6,3-4.5,3
	c-2.1,0-3.1-1.7-2.5-5.3l0.6-3.8c0.4-2.3,0.5-4.3,0.5-4.3c1.5-0.3,3.5-1,4.2-1c0.5,0,1,0.5,1,0.5l-0.8,4.8l-0.7,4.4
	c-0.1,0.4,0,0.6,0.4,0.6c1.8,0,2.8-5.1,2.8-5.1c0.4-2.3,0.5-4.3,0.5-4.3c1.5-0.3,3.5-1,4.2-1c0.5,0,1,0.5,1,0.5l-0.8,4.8
	L647.3,764.2z M442.6,751.8h4.8c1.1,0,1.9,0.1,2.5,0.2c0.8,0.2,1.4,0.6,1.9,1.2c0.5,0.6,0.9,1.3,1.2,2.1c0.3,0.8,0.4,1.8,0.4,3
	c0,1.1-0.1,2-0.4,2.7c-0.3,0.9-0.8,1.7-1.4,2.3c-0.5,0.4-1.1,0.8-1.8,1c-0.6,0.2-1.3,0.3-2.3,0.3h-4.9V751.8z M445.2,754v8.5h1.9
	c0.7,0,1.3,0,1.6-0.1c0.4-0.1,0.8-0.3,1.1-0.5c0.3-0.3,0.5-0.7,0.7-1.2c0.2-0.6,0.3-1.4,0.3-2.4c0-1-0.1-1.8-0.3-2.3
	s-0.4-0.9-0.7-1.2c-0.3-0.3-0.7-0.5-1.2-0.6c-0.4-0.1-1.1-0.1-2.1-0.1H445.2z M460.6,761.7l2.5,0.4c-0.3,0.9-0.8,1.6-1.5,2.1
	c-0.7,0.5-1.5,0.7-2.6,0.7c-1.6,0-2.8-0.5-3.6-1.6c-0.6-0.8-0.9-1.9-0.9-3.2c0-1.5,0.4-2.8,1.2-3.6c0.8-0.9,1.8-1.3,3.1-1.3
	c1.4,0,2.5,0.5,3.3,1.4c0.8,0.9,1.2,2.3,1.2,4.2H457c0,0.7,0.2,1.3,0.6,1.7c0.4,0.4,0.9,0.6,1.4,0.6c0.4,0,0.7-0.1,1-0.3
	C460.3,762.5,460.5,762.2,460.6,761.7z M460.7,759.2c0-0.7-0.2-1.3-0.6-1.6c-0.4-0.4-0.8-0.6-1.3-0.6c-0.5,0-1,0.2-1.3,0.6
	c-0.4,0.4-0.5,0.9-0.5,1.6H460.7z M464,762l2.5-0.4c0.1,0.5,0.3,0.8,0.6,1.1c0.3,0.2,0.8,0.4,1.4,0.4c0.6,0,1.1-0.1,1.4-0.4
	c0.2-0.2,0.3-0.4,0.3-0.7c0-0.2-0.1-0.3-0.2-0.5c-0.1-0.1-0.4-0.2-0.8-0.3c-2-0.4-3.3-0.8-3.8-1.2c-0.7-0.5-1.1-1.2-1.1-2.1
	c0-0.8,0.3-1.5,1-2c0.6-0.6,1.6-0.8,3-0.8c1.3,0,2.2,0.2,2.8,0.6c0.6,0.4,1,1,1.3,1.8l-2.3,0.4c-0.1-0.4-0.3-0.6-0.6-0.8
	c-0.3-0.2-0.7-0.3-1.2-0.3c-0.7,0-1.1,0.1-1.4,0.3c-0.2,0.1-0.3,0.3-0.3,0.5c0,0.2,0.1,0.3,0.2,0.4c0.2,0.2,1,0.4,2.3,0.7
	c1.3,0.3,2.2,0.7,2.8,1.1c0.5,0.4,0.8,1.1,0.8,1.8c0,0.9-0.4,1.6-1.1,2.2c-0.7,0.6-1.8,0.9-3.2,0.9c-1.3,0-2.3-0.3-3-0.8
	C464.7,763.6,464.2,762.9,464,762z M474.5,754.1v-2.3h2.5v2.3H474.5z M474.5,764.7v-9.3h2.5v9.3H474.5z M478.9,765.3l2.8,0.3
	c0,0.3,0.2,0.6,0.3,0.7c0.2,0.2,0.6,0.3,1.1,0.3c0.6,0,1.1-0.1,1.5-0.3c0.2-0.1,0.4-0.3,0.5-0.6c0.1-0.2,0.1-0.6,0.1-1.1v-1.4
	c-0.7,1-1.7,1.5-2.8,1.5c-1.3,0-2.2-0.5-3-1.6c-0.6-0.8-0.9-1.9-0.9-3.1c0-1.6,0.4-2.8,1.1-3.6c0.8-0.8,1.7-1.2,2.8-1.2
	c1.2,0,2.1,0.5,2.9,1.5v-1.3h2.3v8.4c0,1.1-0.1,1.9-0.3,2.5c-0.2,0.5-0.4,1-0.8,1.3c-0.3,0.3-0.8,0.6-1.3,0.7
	c-0.5,0.2-1.2,0.3-2.1,0.3c-1.6,0-2.7-0.3-3.4-0.8c-0.7-0.5-1-1.2-1-2.1C478.9,765.5,478.9,765.4,478.9,765.3z M481.1,759.8
	c0,1,0.2,1.7,0.6,2.2c0.4,0.5,0.9,0.7,1.4,0.7c0.6,0,1.1-0.2,1.5-0.7c0.4-0.5,0.6-1.2,0.6-2.1c0-1-0.2-1.7-0.6-2.2
	c-0.4-0.5-0.9-0.7-1.5-0.7c-0.6,0-1.1,0.2-1.5,0.7C481.3,758.2,481.1,758.9,481.1,759.8z M498.2,764.7h-2.5v-4.8c0-1-0.1-1.7-0.2-2
	c-0.1-0.3-0.3-0.5-0.5-0.7c-0.2-0.2-0.5-0.2-0.9-0.2c-0.4,0-0.8,0.1-1.2,0.4c-0.3,0.2-0.6,0.5-0.7,0.9c-0.1,0.4-0.2,1.1-0.2,2.1v4.2
	h-2.5v-9.3h2.3v1.4c0.8-1.1,1.8-1.6,3.1-1.6c0.5,0,1,0.1,1.5,0.3c0.5,0.2,0.8,0.4,1,0.8c0.2,0.3,0.4,0.7,0.5,1
	c0.1,0.4,0.1,0.9,0.1,1.7V764.7z M505.8,761.7l2.5,0.4c-0.3,0.9-0.8,1.6-1.5,2.1c-0.7,0.5-1.5,0.7-2.6,0.7c-1.6,0-2.8-0.5-3.6-1.6
	c-0.6-0.8-0.9-1.9-0.9-3.2c0-1.5,0.4-2.8,1.2-3.6c0.8-0.9,1.8-1.3,3.1-1.3c1.4,0,2.5,0.5,3.3,1.4c0.8,0.9,1.2,2.3,1.2,4.2h-6.2
	c0,0.7,0.2,1.3,0.6,1.7c0.4,0.4,0.9,0.6,1.4,0.6c0.4,0,0.7-0.1,1-0.3C505.5,762.5,505.7,762.2,505.8,761.7z M505.9,759.2
	c0-0.7-0.2-1.3-0.6-1.6c-0.4-0.4-0.8-0.6-1.3-0.6c-0.5,0-1,0.2-1.3,0.6c-0.4,0.4-0.5,0.9-0.5,1.6H505.9z M518.6,764.7h-2.3v-1.4
	c-0.4,0.5-0.8,0.9-1.3,1.2c-0.5,0.3-1,0.4-1.6,0.4c-1.1,0-2-0.4-2.8-1.3c-0.8-0.9-1.1-2.1-1.1-3.6c0-1.6,0.4-2.8,1.1-3.6
	c0.7-0.8,1.7-1.2,2.8-1.2c1,0,1.9,0.4,2.7,1.3v-4.6h2.5V764.7z M512,759.8c0,1,0.1,1.7,0.4,2.2c0.4,0.6,1,1,1.7,1
	c0.6,0,1.1-0.2,1.5-0.7c0.4-0.5,0.6-1.2,0.6-2.2c0-1.1-0.2-1.8-0.6-2.3c-0.4-0.5-0.9-0.7-1.5-0.7c-0.6,0-1.1,0.2-1.5,0.7
	C512.2,758.2,512,758.9,512,759.8z M525.2,764.7v-12.9h2.5v4.6c0.8-0.9,1.7-1.3,2.7-1.3c1.1,0,2.1,0.4,2.8,1.2
	c0.7,0.8,1.1,2,1.1,3.5c0,1.6-0.4,2.8-1.1,3.7c-0.8,0.9-1.7,1.3-2.8,1.3c-0.5,0-1.1-0.1-1.6-0.4c-0.5-0.3-1-0.7-1.3-1.2v1.4H525.2z
	 M527.7,759.8c0,1,0.2,1.7,0.5,2.1c0.4,0.7,1,1,1.7,1c0.5,0,1-0.2,1.4-0.7c0.4-0.5,0.6-1.2,0.6-2.2c0-1.1-0.2-1.8-0.6-2.3
	c-0.4-0.5-0.9-0.7-1.5-0.7c-0.6,0-1.1,0.2-1.5,0.7C527.9,758.2,527.7,758.9,527.7,759.8z M534.8,755.4h2.6l2.2,6.6l2.2-6.6h2.6
	l-3.3,9l-0.6,1.6c-0.2,0.5-0.4,1-0.6,1.2c-0.2,0.3-0.4,0.5-0.7,0.7c-0.3,0.2-0.6,0.3-0.9,0.4c-0.4,0.1-0.8,0.1-1.3,0.1
	c-0.5,0-0.9,0-1.4-0.1l-0.2-1.9c0.4,0.1,0.7,0.1,1,0.1c0.6,0,1-0.2,1.3-0.5c0.3-0.3,0.5-0.8,0.6-1.3L534.8,755.4z"/>
</svg>
